<?xml version="1.0" encoding="UTF-8" standalone="no"?>
<!-- Created with Inkscape (http://www.inkscape.org/) -->

<svg
   xmlns:osb="http://www.openswatchbook.org/uri/2009/osb"
   xmlns:dc="http://purl.org/dc/elements/1.1/"
   xmlns:cc="http://creativecommons.org/ns#"
   xmlns:rdf="http://www.w3.org/1999/02/22-rdf-syntax-ns#"
   xmlns:svg="http://www.w3.org/2000/svg"
   xmlns="http://www.w3.org/2000/svg"
   xmlns:sodipodi="http://sodipodi.sourceforge.net/DTD/sodipodi-0.dtd"
   xmlns:inkscape="http://www.inkscape.org/namespaces/inkscape"
   width="210mm"
   height="297mm"
   viewBox="0 0 744.09448819 1052.3622047"
   id="svg2"
   version="1.1"
   inkscape:version="0.91 r13725"
   inkscape:export-filename="/media/kate/D/KPI/web-design/lab1/img/menu"
   inkscape:export-xdpi="90"
   inkscape:export-ydpi="90"
   sodipodi:docname="menu.svg">
  <defs
     id="defs4">
    <linearGradient
       id="linearGradient5590"
       osb:paint="solid">
      <stop
         style="stop-color:#000000;stop-opacity:1;"
         offset="0"
         id="stop5592" />
    </linearGradient>
  </defs>
  <sodipodi:namedview
     id="base"
     pagecolor="#ffffff"
     bordercolor="#666666"
     borderopacity="1.0"
     inkscape:pageopacity="0.0"
     inkscape:pageshadow="2"
     inkscape:zoom="1.979899"
     inkscape:cx="61.717182"
     inkscape:cy="122.96763"
     inkscape:document-units="px"
     inkscape:current-layer="layer1"
     showgrid="false"
     showguides="false"
     inkscape:window-width="1301"
     inkscape:window-height="744"
     inkscape:window-x="65"
     inkscape:window-y="24"
     inkscape:window-maximized="1" />
  <metadata
     id="metadata7">
    <rdf:RDF>
      <cc:Work
         rdf:about="">
        <dc:format>image/svg+xml</dc:format>
        <dc:type
           rdf:resource="http://purl.org/dc/dcmitype/StillImage" />
        <dc:title></dc:title>
      </cc:Work>
    </rdf:RDF>
  </metadata>
  <g
     inkscape:label="Layer 1"
     inkscape:groupmode="layer"
     id="layer1">
    <path
       style="color:#000000;clip-rule:nonzero;display:inline;overflow:visible;visibility:visible;opacity:1;isolation:auto;mix-blend-mode:normal;color-interpolation:sRGB;color-interpolation-filters:linearRGB;solid-color:#000000;solid-opacity:1;fill:#d3d3d3;fill-opacity:1;fill-rule:evenodd;stroke:none;stroke-width:1.00186682px;stroke-linecap:butt;stroke-linejoin:miter;stroke-miterlimit:4;stroke-dasharray:none;stroke-dashoffset:0;stroke-opacity:1;color-rendering:auto;image-rendering:auto;shape-rendering:auto;text-rendering:auto;enable-background:accumulate"
       d="M 24.285156 822.36133 C 10.83087 822.36133 0 833.19415 0 846.64844 L 0 1028.0762 C 0 1041.5305 10.83087 1052.3613 24.285156 1052.3613 L 205.71484 1052.3613 C 219.16913 1052.3613 230 1041.5305 230 1028.0762 L 230 846.64844 C 230 833.19415 219.16913 822.36133 205.71484 822.36133 L 24.285156 822.36133 z M 53.070312 868.86133 L 177.06445 868.86133 A 8.50085 8.50085 0 1 1 177.06445 885.86133 L 53.070312 885.86133 A 8.50085 8.50085 0 1 1 53.070312 868.86133 z M 53.070312 928.86133 L 177.06445 928.86133 A 8.50085 8.50085 0 0 1 177.17773 928.86328 A 8.50085 8.50085 0 0 1 177.18945 928.86328 A 8.50085 8.50085 0 1 1 177.06445 945.86133 L 53.070312 945.86133 A 8.50085 8.50085 0 1 1 53.070312 928.86133 z M 53.070312 988.86133 L 177.06445 988.86133 A 8.50085 8.50085 0 0 1 177.17773 988.86328 A 8.50085 8.50085 0 0 1 177.18945 988.86328 A 8.50085 8.50085 0 1 1 177.06445 1005.8613 L 53.070312 1005.8613 A 8.50085 8.50085 0 1 1 53.070312 988.86133 z "
       id="rect4150" />
    <rect
       style="color:#000000;clip-rule:nonzero;display:inline;overflow:visible;visibility:visible;opacity:0;isolation:auto;mix-blend-mode:normal;color-interpolation:sRGB;color-interpolation-filters:linearRGB;solid-color:#000000;solid-opacity:1;fill:#d3d300;fill-opacity:0;fill-rule:evenodd;stroke:#000000;stroke-width:1px;stroke-linecap:butt;stroke-linejoin:miter;stroke-miterlimit:4;stroke-dasharray:none;stroke-dashoffset:0;stroke-opacity:0;color-rendering:auto;image-rendering:auto;shape-rendering:auto;text-rendering:auto;enable-background:accumulate"
       id="rect4154"
       width="150"
       height="10"
       x="42.142857"
       y="868.07648"
       ry="12.142858"
       rx="2.8571429" />
  </g>
</svg>
